<svg width="60" height="62" viewBox="0 0 60 62" fill="none" xmlns="http://www.w3.org/2000/svg">
<g clip-path="url(#clip0_536_2432)">
<path d="M20.107 34.0965C20.107 34.0965 31.6239 32.4432 29.8052 42.8252C18.2714 44.4592 20.107 34.0965 20.107 34.0965Z" fill="#9CAD66"/>
<path d="M43.9037 34.0962C43.9037 34.0962 33.5402 32.4449 35.1749 42.8249C45.5555 44.4608 43.9037 34.0962 43.9037 34.0962Z" fill="#9CAD66"/>
<path d="M32.0964 61.4995C43.1832 61.4995 48.2488 61.5211 50.698 61.4038C51.9399 61.3443 52.4284 61.2504 52.6765 61.1431C52.7798 61.0984 52.8441 61.0493 52.9197 60.9761C52.9638 60.9333 53.0067 60.8875 53.0691 60.8218C53.1284 60.7592 53.1988 60.6857 53.2839 60.606C53.4401 60.4596 53.6496 60.2989 53.7146 60.2427C53.8029 60.1663 53.8506 60.1105 53.8914 60.0278C53.994 59.8196 54.084 59.3815 54.0955 58.1714C54.1179 55.7958 53.8506 50.8372 53.3201 39.8765V39.8755C53.0681 34.6269 52.8291 29.8022 52.6482 26.2563C52.5577 24.4833 52.4822 23.0295 52.4265 22.0034C52.3987 21.4905 52.3761 21.0846 52.3591 20.7993C52.3506 20.6566 52.3431 20.5448 52.3376 20.4653C52.3334 20.4037 52.3308 20.3719 52.3298 20.3599C52.1766 19.483 51.6058 18.7296 50.6785 18.2739C50.4354 18.1546 50.2628 18.0908 50.0339 18.0483C49.7889 18.003 49.4673 17.9796 48.9187 17.9614H48.9167L47.5984 17.9126L47.1199 17.895L47.1169 17.4165L47.0779 11.1558L47.0388 5.04834L46.7917 4.64697L46.7878 4.64209C46.7235 4.53586 46.5357 4.32735 46.1248 3.97119C45.9265 3.79937 45.6872 3.60154 45.4021 3.37451L44.408 2.60303C43.2161 1.70239 42.0667 0.851135 41.8269 0.687012L41.5271 0.499512H22.6218L20.1697 2.32666C19.2278 3.02787 18.5729 3.53473 18.1267 3.91162C17.6664 4.30041 17.474 4.51366 17.405 4.62842L17.4041 4.63037L17.1531 5.04443L17.115 11.1558L17.0759 17.4165L17.073 17.895L16.5945 17.9126L15.2761 17.9614H15.2742C14.7256 17.9796 14.404 18.003 14.1589 18.0483C13.93 18.0908 13.7575 18.1546 13.5144 18.2739L13.5125 18.2749L13.3474 18.3599C12.5434 18.8073 12.0009 19.5433 11.8601 20.3081C11.8591 20.3206 11.8588 20.3491 11.8552 20.3999C11.8498 20.4773 11.8422 20.587 11.8337 20.728C11.8168 21.0102 11.7942 21.4132 11.7664 21.9243C11.7107 22.9467 11.6351 24.3987 11.5447 26.1724C11.3638 29.7197 11.1248 34.554 10.8728 39.8149V39.8159C10.3423 50.813 10.075 55.7868 10.0974 58.1685C10.1088 59.3821 10.1989 59.8207 10.3015 60.0288C10.3422 60.1112 10.39 60.1665 10.4783 60.2427C10.544 60.2993 10.7522 60.4591 10.9089 60.606C10.9941 60.6857 11.0645 60.7592 11.1238 60.8218C11.1862 60.8875 11.2291 60.9333 11.2732 60.9761C11.3487 61.0493 11.4131 61.0984 11.5164 61.1431C11.7645 61.2504 12.253 61.3443 13.4949 61.4038C15.9441 61.5211 21.0097 61.4995 32.0964 61.4995ZM23.3259 1.43701H40.8669V5.34326H23.3259V1.43701ZM18.157 5.25732L18.2996 5.11084L18.5974 4.80811V4.80908C18.6967 4.70551 18.9227 4.51769 19.1638 4.32373C19.4314 4.10845 19.764 3.8475 20.0916 3.59619C20.4189 3.345 20.744 3.10087 20.9949 2.91846C21.1196 2.82772 21.2305 2.74966 21.3152 2.69287C21.3566 2.66512 21.3984 2.63824 21.4353 2.6167C21.453 2.60639 21.4776 2.59159 21.5056 2.57861C21.5195 2.57218 21.5424 2.56232 21.5701 2.55322C21.5898 2.54676 21.6515 2.52688 21.7322 2.52686C21.8452 2.5398 22.0215 2.61927 22.0828 2.67041C22.1163 2.70682 22.1624 2.77283 22.1775 2.80029C22.2028 2.84985 22.2145 2.89206 22.2175 2.90381C22.2255 2.9348 22.2285 2.96048 22.2292 2.96631C22.2315 2.98374 22.2318 2.9987 22.2322 3.00439C22.2331 3.01883 22.2337 3.03481 22.2341 3.04834C22.2351 3.07722 22.2363 3.11766 22.2371 3.1665C22.2387 3.26508 22.2404 3.40903 22.2419 3.59229C22.245 3.95952 22.2473 4.48975 22.2498 5.14307C22.2546 6.45001 22.2585 8.25177 22.2585 10.2319V17.937H18.157V5.25732ZM41.9343 10.2202C41.9343 7.33955 41.9444 5.53229 41.9705 4.45654C41.9834 3.92205 42.0001 3.55287 42.0242 3.31982C42.0353 3.21234 42.0516 3.09469 42.0828 2.99854C42.0931 2.96678 42.1326 2.84173 42.2449 2.74072C42.3148 2.6778 42.4301 2.61038 42.5828 2.60791C42.7302 2.60557 42.8407 2.66561 42.9031 2.7124L42.9109 2.71826C42.9947 2.78359 43.6367 3.25706 44.3669 3.81689L44.366 3.81787C44.7332 4.0885 45.076 4.35868 45.3357 4.57861C45.4659 4.6889 45.5798 4.79011 45.6667 4.87354C45.7098 4.91482 45.7509 4.95657 45.7859 4.99561C45.809 5.02141 45.8703 5.0887 45.9109 5.17432L45.9216 5.19678L45.9294 5.22119C45.9493 5.27695 45.9566 5.32803 45.9578 5.33643C45.9607 5.35687 45.962 5.37738 45.9636 5.39502C45.9669 5.43115 45.9699 5.47536 45.9724 5.52393C45.9775 5.62209 45.9825 5.75659 45.9871 5.92041C45.9962 6.24905 46.0042 6.70886 46.0115 7.26514C46.026 8.37876 46.0359 9.88567 46.0359 11.5161V17.937H41.9343V10.2202ZM23.3259 6.28076H40.8669V17.937H23.3259V6.28076ZM12.1306 60.3726L11.7478 60.0259C11.5965 59.8924 11.4611 59.7239 11.3572 59.561C11.2595 59.408 11.1624 59.2154 11.1248 59.0249H11.1238C11.1111 58.9633 11.1111 58.8953 11.1111 58.8872C11.1107 58.8571 11.1115 58.8192 11.1121 58.7769C11.1132 58.6911 11.1155 58.5721 11.1199 58.4243C11.1286 58.1277 11.1434 57.7048 11.1638 57.1753C11.2048 56.1156 11.2685 54.622 11.3464 52.8394C11.5024 49.2739 11.7182 44.5481 11.9412 39.813C12.1641 35.078 12.3942 30.3328 12.5759 26.728C12.6668 24.9258 12.7451 23.408 12.8054 22.3188C12.8356 21.7744 12.8615 21.3357 12.8816 21.022C12.8916 20.8655 12.9006 20.7384 12.908 20.644C12.914 20.5668 12.9208 20.4808 12.9304 20.4263V20.4253C12.9882 20.1014 13.2125 19.7845 13.4187 19.561C13.631 19.3309 13.9245 19.0927 14.2292 18.9878C14.2733 18.9726 14.3101 18.9665 14.3171 18.9653C14.3313 18.9631 14.3437 18.9612 14.3513 18.9604C14.367 18.9588 14.3831 18.9583 14.3953 18.9575C14.4206 18.956 14.4522 18.9547 14.4871 18.9536C14.5579 18.9513 14.6572 18.9488 14.782 18.9468C15.0329 18.9426 15.3958 18.9387 15.8562 18.9351C16.7773 18.9279 18.0961 18.922 19.7146 18.9175C22.9525 18.9084 27.3924 18.9056 32.2517 18.9116L49.9177 18.9351L50.1101 18.936L50.2527 19.0649L50.6345 19.4126L50.6355 19.4116C50.787 19.5452 50.9231 19.7134 51.0271 19.8765C51.1261 20.0317 51.2251 20.2274 51.2615 20.4204V20.4214C51.2716 20.4755 51.2787 20.5645 51.2849 20.644C51.2923 20.7384 51.3013 20.8655 51.3113 21.022C51.3314 21.3357 51.3573 21.7744 51.3875 22.3188C51.4478 23.408 51.5261 24.9258 51.6169 26.728C51.7987 30.3328 52.0288 35.078 52.2517 39.813C52.4746 44.5481 52.6905 49.2739 52.8464 52.8394C52.9244 54.622 52.9881 56.1156 53.0291 57.1753C53.0495 57.7048 53.0643 58.1277 53.073 58.4243C53.0773 58.5721 53.0797 58.6911 53.0808 58.7769C53.0814 58.8192 53.0822 58.8571 53.0818 58.8872C53.0817 58.8953 53.0817 58.9633 53.0691 59.0249H53.0671C53.0295 59.2153 52.9333 59.408 52.8357 59.561C52.7317 59.724 52.5955 59.8923 52.4441 60.0259L52.0623 60.3726L51.9187 60.5015H12.2742L12.1306 60.3726Z" fill="#5C7347" stroke="#5C7347"/>
<path d="M16.9122 31.3028C16.5891 31.5935 16.5891 31.6298 16.5891 33.6399C16.5891 34.9356 16.6666 36.086 16.783 36.7521C17.5842 41.0751 21.3447 44.5989 25.9582 45.3497C26.6431 45.4587 27.8708 45.5313 29.0726 45.5313H31.0627V47.6505C31.0627 49.7454 31.0627 49.7817 31.3858 50.0724C31.7993 50.472 32.3938 50.472 32.8073 50.0724C33.1304 49.7817 33.1304 49.7454 33.1304 47.6505V45.5313H35.1205C37.4078 45.5313 38.9198 45.3255 40.3155 44.8169C43.0551 43.8239 45.4458 41.6806 46.6347 39.1618C47.3455 37.6481 47.5006 36.8247 47.5652 34.1243L47.6298 31.6177L47.2938 31.3028L46.9449 30.9759L43.7529 31.0364C40.3025 31.0849 39.5659 31.1938 37.8601 31.9083C35.8442 32.7438 33.8153 34.4149 32.7427 36.1224C32.4196 36.631 32.1353 37.0427 32.0965 37.0427C32.0578 37.0427 31.7735 36.631 31.4504 36.1224C30.2615 34.2212 27.8578 32.3806 25.6222 31.6419C24.0456 31.1333 22.9601 31.0122 19.9749 31.0001H17.2223L16.9122 31.3028ZM24.5367 33.3372C26.0099 33.7974 27.0954 34.4271 28.2843 35.5411C30.0418 37.188 30.8818 38.9317 31.0239 41.2325L31.1015 42.4435L30.7913 42.1892C30.6233 42.056 29.2923 40.9661 27.832 39.7673C26.3717 38.5806 24.9631 37.4181 24.6917 37.2001C24.0844 36.7157 23.5545 36.6915 23.1151 37.1153C22.7016 37.4907 22.6887 38.0356 23.0893 38.4231C23.2444 38.5927 24.5625 39.6825 26.0228 40.8692C27.4831 42.056 28.8141 43.1579 28.995 43.3274L29.3181 43.6181L27.7674 43.5575C25.0794 43.4485 23.2961 42.722 21.4352 40.9903C20.2463 39.8763 19.5743 38.8712 19.0961 37.4786C18.8118 36.6794 18.7472 36.195 18.6826 34.7056L18.618 32.9134L21.0604 32.9618C23.2444 33.0224 23.6062 33.0587 24.5367 33.3372ZM45.5104 34.7177C45.4458 36.195 45.3812 36.6794 45.0969 37.4786C44.6188 38.8591 43.9468 39.8763 42.7579 40.9903C40.9099 42.722 39.1266 43.4485 36.4257 43.5575C34.8749 43.6181 34.8749 43.6181 35.1334 43.3759C35.2756 43.2427 36.5808 42.1771 38.041 40.9903C41.2588 38.3868 41.401 38.2415 41.401 37.7692C41.401 37.2849 40.897 36.8126 40.3672 36.8126C39.9924 36.8126 39.0232 37.5634 33.4017 42.1892L33.0916 42.4435L33.1691 41.2325C33.3113 38.9317 34.1513 37.188 35.9088 35.5411C37.0331 34.4876 37.9635 33.9185 39.2816 33.4583C40.4964 33.0466 41.1942 32.9618 43.5203 32.9497L45.5751 32.9376L45.5104 34.7177Z" fill="#5C7347"/>
</g>
<defs>
<clipPath id="clip0_536_2432">
<rect width="60" height="62" fill="white"/>
</clipPath>
</defs>
</svg>
