<svg width="306" height="118" viewBox="0 0 306 118" fill="none" xmlns="http://www.w3.org/2000/svg">
<path d="M5.85604 0.568794C3.65461 1.33668 1.10785 4.02425 0.503537 6.15726C-0.273439 8.84483 -0.100777 38.2376 0.676199 41.9063C1.669 46.6416 4.04309 50.8649 7.79848 54.5763C12.9352 59.6955 18.8488 62.2125 25.6689 62.2125H28.9495L26.8776 64.7721C25.7121 66.1799 24.1581 68.6115 23.3812 70.1899C20.8776 75.2238 20.7049 77.1008 20.8344 95.5299L20.9639 112.039L22.2589 113.874C25.9279 119.036 33.6113 118.95 36.8919 113.703C37.8415 112.167 38.1869 111.016 38.3595 108.712C38.5322 105.896 38.6185 105.726 39.4818 105.982C43.2804 107.219 49.6688 107.347 53.6832 106.323C59.5105 104.83 65.64 100.606 68.7479 95.8712C69.4817 94.7194 70.1292 93.7809 70.2155 93.7809C70.2587 93.7809 70.9062 94.7621 71.6832 95.9139C74.6616 100.478 80.9205 104.83 86.791 106.366C89.8558 107.176 96.6759 107.176 99.7406 106.366C104.057 105.256 108.374 102.825 111.395 99.7959C112.949 98.2602 114.633 96.3831 115.151 95.7006L116.1 94.4208L116.143 97.6203C116.143 101.332 117.093 103.337 119.726 105.47C121.107 106.579 121.798 106.792 124.259 106.92C128.057 107.133 130.474 105.939 132.33 102.953L133.625 100.905L133.755 92.8424C133.841 88.4484 134.014 84.8223 134.1 84.8223C134.23 84.8223 135.136 85.2489 136.129 85.8035C137.683 86.614 138.589 86.742 142.474 86.742C146.359 86.742 147.266 86.614 148.82 85.7608C149.812 85.2489 150.762 84.8223 150.892 84.8223C151.021 84.8223 151.107 88.0218 151.107 91.9465C151.107 99.54 151.41 101.332 152.963 103.635C155.597 107.517 162.158 108.2 165.827 105C166.474 104.446 166.561 104.744 166.733 107.987C166.863 110.888 167.122 111.954 168.071 113.49C170.23 117.116 175.409 118.694 179.381 116.86C182.704 115.324 184.345 112.509 184.345 108.243C184.345 105.939 184.431 105.683 185.078 105.939C189.222 107.475 197.64 107.304 202.258 105.555C205.712 104.233 208.906 102.27 211.582 99.7959C212.575 98.8147 213.481 98.0469 213.568 98.0469C213.611 98.0469 213.697 98.5161 213.697 99.1134C213.697 100.564 214.819 103.123 215.985 104.361C217.798 106.28 220.042 107.091 223.021 106.92C226.949 106.664 228.805 105.342 230.834 101.161C232.086 98.6441 232.906 97.5776 234.33 96.5538C236.186 95.274 236.316 95.274 242.445 95.146L248.661 94.9753V97.7909C248.661 99.3693 248.92 101.246 249.222 102.014C250.042 103.934 253.064 106.494 254.92 106.835C257.424 107.304 260.661 106.792 262.129 105.726L263.424 104.787L265.711 105.896L267.999 107.048L280.69 106.92L293.38 106.792L296.186 105.427C301.582 102.782 305.423 97.2363 305.941 91.3493C306.632 82.9879 301.15 75.1811 293.121 73.1761L290.92 72.6215L293.035 71.2991C295.97 69.5073 297.179 67.0331 296.92 63.279C296.79 61.018 296.531 60.2501 295.452 58.9277C294.718 58.0318 293.294 56.88 292.258 56.3254C290.531 55.4722 289.754 55.3869 283.841 55.3869C279.136 55.3869 276.632 55.5575 274.949 56.0694C270.157 57.4346 265.884 61.146 263.855 65.7106L262.647 68.2702L261.438 66.5638C259.754 64.1322 255.74 60.4634 253.237 59.013C245.251 54.4057 235.107 54.2351 227.251 58.5864C223.841 60.4634 220.258 63.7056 218.229 66.6918C217.366 67.9716 216.546 69.0381 216.373 69.0381C216.201 69.0381 215.64 68.3129 215.165 67.417C212.316 62.5964 206.661 58.3304 200.445 56.4107C196.992 55.3442 191.424 55.1736 187.755 55.9841C179.985 57.6905 173.899 62.1272 169.971 68.9528L168.891 70.8298L168.762 66.1799C168.589 61.8712 168.46 61.3166 167.294 59.4396C165.05 55.8988 160.863 54.491 156.762 55.9841C155.812 56.3254 152.92 58.8423 148.906 62.895L142.474 69.2514L136.129 62.9804C132.244 59.141 129.093 56.4534 128.143 56.0268C124.043 54.363 119.165 56.0694 117.093 59.8662C116.705 60.5487 116.316 62.6817 116.187 64.5161L115.928 67.8863L113.899 65.284C112.733 63.8762 110.661 61.8712 109.237 60.8047L106.69 58.885L108.374 57.7332C110.748 56.1121 114.46 52.1447 115.928 49.6704C119.251 44.0393 120.374 37.1284 118.992 30.9427C116.359 19.2112 105.611 10.5939 93.6975 10.5939C82.8198 10.5939 72.7191 17.4195 69.0932 27.1886C68.6184 28.5111 68.0573 29.8762 67.8846 30.2175C67.7551 30.5588 67.4961 28.1698 67.3666 24.8423C67.1508 19.1259 67.1076 18.742 65.9422 17.1209L64.7335 15.3718L65.8558 13.7507C67.2803 11.703 67.4961 10.6792 67.2803 7.82099C66.8918 3.25638 63.4386 0.184853 58.7336 0.184853C54.0285 0.184853 50.5753 3.25638 50.1868 7.82099C49.971 10.6792 50.1868 11.703 51.6113 13.7507L52.7336 15.3718L51.5681 17.0782C50.6185 18.4007 50.3163 19.4245 50.1437 21.7708L49.8847 24.757L47.6401 21.5148C44.3595 16.8223 40.302 13.9214 34.1293 11.7884C30.7193 10.5939 24.7193 10.3379 21.0502 11.1911C19.41 11.5751 18.0287 11.8737 17.8992 11.8737C17.8128 11.8737 17.7265 10.9778 17.7265 9.82601C17.7265 6.62651 16.9495 4.57883 14.9639 2.65913C12.374 0.0568771 9.30926 -0.625687 5.85604 0.568794ZM10.6042 4.79214C12.9783 5.77332 13.41 7.18109 13.41 13.5801V19.1259L15.0503 18.0594C18.892 15.5424 25.6689 14.3053 30.4603 15.2865C38.1437 16.7796 44.6617 22.5387 47.0789 29.9189C50.23 39.5174 45.7408 50.609 36.7624 55.3442C33.1797 57.2213 30.3308 57.9465 26.3596 57.9465C20.1438 57.9465 15.4387 56.0694 10.9927 51.7608C8.0143 48.8599 5.46755 44.2953 4.7769 40.4986C4.12942 37.0004 4.21576 8.07695 4.9064 6.75449C5.38122 5.81597 7.84164 4.19489 8.79128 4.19489C8.96394 4.19489 9.78408 4.45085 10.6042 4.79214ZM61.8846 5.90129C65.8127 10.1673 59.5969 15.7558 55.453 11.6604C53.5106 9.74069 54.4602 5.73065 57.1796 4.57883C58.6472 3.9816 60.5897 4.53617 61.8846 5.90129ZM98.4025 15.4998C110.1 18.23 117.568 30.2175 114.633 41.5224C113.554 45.5751 111.827 48.5613 108.805 51.5901C104.402 55.9841 99.6543 57.9038 93.2227 57.9465C81.5249 57.9891 71.6832 48.3053 71.6832 36.7445C71.6832 22.6667 84.6759 12.3003 98.4025 15.4998ZM61.7983 19.0832L63.0501 20.3204V37.8963V55.4295L62.0141 56.4534C60.0285 58.4157 57.3091 58.3731 55.453 56.3681L54.417 55.2589V37.811V20.3204L55.6688 19.0832C56.6616 18.1021 57.3091 17.8461 58.7336 17.8461C60.158 17.8461 60.8055 18.1021 61.7983 19.0832ZM54.158 60.9327C61.7983 63.5349 67.4961 70.4032 68.7048 78.5086C70.2587 88.875 63.1364 99.4546 52.9062 102.1C47.6401 103.422 41.5106 102.739 36.6329 100.223L34.1725 98.9427L34.043 104.915L33.9135 110.93L32.489 112.167C30.5034 113.959 28.4747 113.874 26.5322 111.954L25.0646 110.504V94.9327C25.0646 86.4007 25.2373 78.338 25.4963 77.1008C26.9639 69.3367 34.0862 62.0418 42.0286 60.2501C45.4818 59.4822 50.8343 59.7809 54.158 60.9327ZM100.345 60.9327C103.626 62.0418 106.345 63.7909 108.849 66.3505C113.122 70.7018 114.978 75.2238 114.978 81.1962C114.935 89.7708 110.489 96.8951 102.935 100.606C99.3521 102.356 96.3737 102.867 91.7119 102.654C88.3018 102.484 87.2658 102.228 84.5464 100.948C76.086 96.9377 71.6832 90.2828 71.6832 81.4521C71.6832 79.4471 71.9422 76.8022 72.2875 75.6077C74.2731 68.2702 80.5752 62.2551 88.4313 60.2928C91.6255 59.4822 97.0212 59.7809 100.345 60.9327ZM126.633 60.1221C127.151 60.3781 130.604 63.5776 134.316 67.161C140.273 73.0055 141.179 73.7307 142.474 73.7307C143.769 73.7307 144.676 72.9628 151.107 66.6918C157.755 60.1648 158.445 59.6529 159.87 59.6529C160.992 59.6529 161.856 59.9942 162.848 60.89L164.273 62.1272L164.402 80.0017C164.489 89.8135 164.402 98.4308 164.273 99.156C163.496 103.55 157.41 104.062 155.812 99.8812C155.597 99.3267 155.424 93.4396 155.424 86.87V74.8825L152.23 77.9114C148.215 81.6654 146.92 82.348 143.251 82.604C138.978 82.9026 137.079 82.0494 132.676 77.8687L129.093 74.4559V87.5099V100.521L127.755 101.63C125.856 103.209 123.395 103.166 121.712 101.502L120.46 100.265V81.3242C120.46 64.0469 120.546 62.3405 121.237 61.5299C122.705 59.7382 124.777 59.1836 126.633 60.1221ZM197.855 60.2928C208.215 62.4684 215.726 72.4935 214.863 82.9026C213.524 98.5588 196.863 107.56 182.834 100.223C181.668 99.6253 180.546 99.0707 180.373 98.9854C180.158 98.9001 180.028 101.332 180.028 104.403C180.028 110.504 179.683 111.826 177.827 112.807C175.927 113.746 174.158 113.532 172.604 112.167L171.179 110.93L171.05 96.4685C170.877 79.7031 171.179 76.5889 173.338 72.1096C177.74 62.895 187.582 58.1171 197.855 60.2928ZM244.431 60.1221C251.855 61.6579 258.503 67.673 260.747 74.9252C261.524 77.3568 261.611 78.8925 261.611 88.9603V100.265L260.359 101.502C258.589 103.251 255.999 103.251 254.229 101.502C252.978 100.265 252.978 100.18 252.978 95.5299V90.7947H244.992C237.913 90.7947 236.747 90.88 234.589 91.6905C231.352 92.885 228.762 95.274 227.337 98.4735C226.69 99.8386 225.697 101.374 225.05 101.886C223.496 103.081 220.992 103.038 219.438 101.716L218.229 100.692L218.1 89.9415C217.97 77.826 218.186 76.077 220.474 71.5124C224.834 62.895 234.805 58.1598 244.431 60.1221ZM290.531 60.2928C293.078 61.5726 293.51 64.7294 291.438 66.9904L290.186 68.3555L284.229 68.5262C280.906 68.6115 277.884 68.9101 277.452 69.1234C276.114 69.806 275.294 72.2802 275.855 73.944C276.675 76.3329 277.539 76.6316 284.963 76.8022C292.56 76.9728 294.2 77.4421 297.567 80.5136C300.287 82.9879 301.495 85.9314 301.495 89.9415C301.539 95.274 299.164 99.0707 294.33 101.46L291.697 102.739H280.085H268.431L267.179 101.502C266.186 100.521 265.927 99.8812 265.927 98.4735C265.927 97.0657 266.186 96.4258 267.179 95.4446L268.431 94.2075H278.877C285.697 94.2075 289.625 94.0368 290.229 93.7382C292.819 92.4158 293.51 89.2163 291.654 87.0833L290.618 85.8888L283.539 85.6755C277.452 85.4622 276.244 85.2915 274.56 84.481C271.668 83.1159 269.726 81.3242 268.301 78.8072C267.136 76.7169 267.006 76.1196 267.006 72.6642C267.006 69.2087 267.136 68.6115 268.301 66.5211C269.855 63.7482 272.272 61.6152 275.165 60.5487C278.057 59.4396 288.546 59.2689 290.531 60.2928Z" fill="#5C7347"/>
<path d="M22.9926 24.0318C17.079 25.6529 13.4531 30.3455 13.4099 36.4032C13.4099 41.4797 15.9998 45.7031 20.5322 48.0494C22.3451 48.9879 23.2516 49.2012 26.1437 49.2012C29.0789 49.2012 29.9854 49.0305 32.1005 47.964C36.7624 45.7031 39.6113 40.7545 39.2228 35.5926C38.5753 27.5726 30.6329 21.9414 22.9926 24.0318Z" fill="#5C7347"/>
<path d="M90.5464 23.8183C86.5752 24.7995 83.2515 27.5724 81.5249 31.2838C80.0572 34.4833 80.1436 39.0479 81.7407 42.0341C83.1652 44.7643 85.4097 46.94 88.0428 48.2198C91.0212 49.6702 96.1148 49.5849 99.0932 48.0491C103.798 45.6175 106.388 41.4795 106.388 36.403C106.388 32.6062 105.309 30.132 102.46 27.3164C99.4385 24.3302 94.4313 22.8798 90.5464 23.8183Z" fill="#5C7347"/>
<path d="M44.2299 68.6542C41.4242 69.2941 38.0141 71.5977 36.4601 73.8587C30.6328 82.2201 36.0285 93.397 46.2155 94.0795C53.3809 94.5914 59.4241 89.3869 59.9421 82.2627C60.2011 78.338 59.2514 75.6504 56.532 72.7069C53.2946 69.2088 48.5464 67.6303 44.2299 68.6542Z" fill="#5C7347"/>
<path d="M90.8053 68.6114C84.8053 69.8059 80.7046 74.5838 80.4025 80.8548C80.2298 83.4144 80.4025 84.2676 81.2658 86.1873C82.6902 89.2162 84.5032 91.2212 87.2657 92.6716C93.4384 95.9991 101.683 93.3968 104.92 87.1258C105.827 85.3341 105.999 84.4382 105.999 81.1961C105.999 77.7833 105.87 77.1434 104.834 75.437C101.726 70.2325 96.201 67.5449 90.8053 68.6114Z" fill="#5C7347"/>
<path d="M190.258 68.6112C186.46 69.5498 183.223 72.152 181.28 75.8634C180.46 77.4419 180.244 78.423 180.244 81.4092C180.244 84.6514 180.374 85.2913 181.539 87.339C185.942 95.1884 196.604 96.5109 202.647 89.9412C207.179 84.9927 207.222 77.7831 202.733 72.5786C200.273 69.6777 194.014 67.7154 190.258 68.6112Z" fill="#5C7347"/>
<path d="M234.891 69.4645C231.783 70.8723 229.798 72.7493 228.416 75.5222C227.208 77.8259 227.078 78.5511 227.078 81.8786V85.6753L228.503 84.8221C231.913 82.7318 234.805 82.2625 244.215 82.2625H253.107L252.805 80.0015C252.201 75.6929 249.87 72.1521 246.157 70.0191C243.438 68.4407 237.74 68.142 234.891 69.4645Z" fill="#5C7347"/>
</svg>
