<svg width="130" height="51" viewBox="0 0 130 51" fill="none" xmlns="http://www.w3.org/2000/svg">
<path d="M2.48786 0.910072C1.55261 1.2363 0.470656 2.37808 0.213921 3.28426C-0.116167 4.42604 -0.0428139 16.9131 0.287274 18.4718C0.709053 20.4835 1.71765 22.2777 3.31308 23.8545C5.49533 26.0293 8.00766 27.0986 10.9051 27.0986H12.2988L11.4186 28.186C10.9234 28.7841 10.2633 29.8171 9.93317 30.4877C8.86956 32.6262 8.7962 33.4237 8.85122 41.253L8.90623 48.2668L9.45638 49.0462C11.0151 51.2391 14.2793 51.2029 15.673 48.9737C16.0765 48.3212 16.2232 47.8319 16.2965 46.8532C16.3699 45.6571 16.4066 45.5846 16.7733 45.6933C18.3871 46.2189 21.1011 46.2733 22.8066 45.8383C25.2823 45.204 27.8863 43.4097 29.2066 41.398C29.5184 40.9087 29.7935 40.51 29.8301 40.51C29.8485 40.51 30.1235 40.9268 30.4536 41.4161C31.719 43.3554 34.378 45.204 36.872 45.8564C38.174 46.2008 41.0715 46.2008 42.3735 45.8564C44.2073 45.3852 46.0411 44.3522 47.3248 43.0654C47.985 42.4129 48.7001 41.6155 48.9202 41.3255L49.3237 40.7818L49.342 42.1411C49.342 43.7178 49.7454 44.5696 50.8641 45.4758C51.4509 45.947 51.7443 46.0376 52.7896 46.092C54.4033 46.1826 55.4303 45.6752 56.2188 44.4065L56.769 43.5366L56.824 40.1113C56.8607 38.2445 56.934 36.704 56.9707 36.704C57.0257 36.704 57.4108 36.8853 57.8326 37.1209C58.4928 37.4652 58.8779 37.5196 60.5283 37.5196C62.1787 37.5196 62.5638 37.4652 63.224 37.1027C63.6458 36.8853 64.0492 36.704 64.1042 36.704C64.1593 36.704 64.1959 38.0633 64.1959 39.7307C64.1959 42.9566 64.3243 43.7178 64.9845 44.6965C66.1031 46.3457 68.8905 46.6357 70.4493 45.2765C70.7243 45.0409 70.761 45.1677 70.8344 46.5451C70.8894 47.7775 70.9994 48.2306 71.4029 48.883C72.3198 50.4235 74.5204 51.0941 76.2075 50.3148C77.6195 49.6624 78.3164 48.4662 78.3164 46.6538C78.3164 45.6752 78.353 45.5664 78.6281 45.6752C80.3886 46.3276 83.9645 46.2551 85.9267 45.5121C87.3938 44.9502 88.7508 44.1166 89.8878 43.0654C90.3096 42.6485 90.6947 42.3223 90.7313 42.3223C90.7497 42.3223 90.7863 42.5217 90.7863 42.7754C90.7863 43.3916 91.2631 44.479 91.7583 45.0046C92.5285 45.8202 93.4821 46.1645 94.7474 46.092C96.4162 45.9833 97.2047 45.4214 98.0666 43.6453C98.5984 42.5761 98.9469 42.123 99.552 41.688C100.341 41.1443 100.396 41.1443 103 41.0899L105.64 41.0174V42.2136C105.64 42.8842 105.75 43.6816 105.879 44.0078C106.227 44.8234 107.511 45.9108 108.299 46.0558C109.363 46.2551 110.738 46.0376 111.362 45.5846L111.912 45.1858L112.884 45.6571L113.856 46.1464L119.247 46.092L124.639 46.0376L125.831 45.4577C128.123 44.334 129.755 41.978 129.975 39.4769C130.269 35.9247 127.94 32.6081 124.529 31.7563L123.593 31.5207L124.492 30.9589C125.739 30.1977 126.252 29.1465 126.142 27.5517C126.087 26.5911 125.977 26.2649 125.519 25.7031C125.207 25.3225 124.602 24.8331 124.162 24.5975C123.428 24.2351 123.098 24.1988 120.586 24.1988C118.587 24.1988 117.523 24.2713 116.808 24.4888C114.773 25.0687 112.957 26.6455 112.095 28.5847L111.582 29.6721L111.068 28.9472C110.353 27.9141 108.648 26.3555 107.584 25.7393C104.192 23.782 99.8821 23.7095 96.5445 25.5581C95.0958 26.3555 93.5738 27.7329 92.7119 29.0015C92.3451 29.5452 91.9967 29.9983 91.9233 29.9983C91.85 29.9983 91.6116 29.6902 91.4099 29.3096C90.1995 27.2617 87.7972 25.4493 85.1565 24.6338C83.6895 24.1807 81.3238 24.1082 79.7651 24.4525C76.4642 25.1775 73.8785 27.0623 72.2097 29.9621L71.7513 30.7595L71.6963 28.7841C71.6229 26.9536 71.5679 26.718 71.0728 25.9205C70.1192 24.4163 68.3404 23.8182 66.5982 24.4525C66.1948 24.5975 64.9661 25.6668 63.2607 27.3885L60.5283 30.0889L57.8326 27.4248C56.1821 25.7937 54.8435 24.6519 54.44 24.4707C52.6979 23.7638 50.6257 24.4888 49.7454 26.1018C49.5804 26.3917 49.4153 27.2979 49.3603 28.0772L49.2503 29.509L48.3884 28.4035C47.8933 27.8054 47.013 26.9536 46.4079 26.5005L45.3259 25.6849L46.0411 25.1956C47.0497 24.5069 48.6268 22.8214 49.2503 21.7703C50.6623 19.3779 51.1391 16.4419 50.5523 13.814C49.4337 8.83006 44.8675 5.1691 39.8061 5.1691C35.1849 5.1691 30.8937 8.06887 29.3533 12.2192C29.1516 12.781 28.9132 13.3609 28.8399 13.5059C28.7849 13.6509 28.6748 12.636 28.6198 11.2224C28.5281 8.79381 28.5098 8.6307 28.0146 7.942L27.5012 7.19894L27.978 6.51024C28.5831 5.64031 28.6748 5.20535 28.5831 3.99107C28.4181 2.05186 26.951 0.746964 24.9522 0.746964C22.9533 0.746964 21.4862 2.05186 21.3212 3.99107C21.2295 5.20535 21.3212 5.64031 21.9264 6.51024L22.4032 7.19894L21.908 7.92388C21.5046 8.48571 21.3762 8.92067 21.3029 9.91747L21.1928 11.1861L20.2392 9.80872C18.8455 7.81514 17.1218 6.58274 14.4994 5.67656C13.0507 5.1691 10.5017 5.06036 8.94291 5.42283C8.24606 5.58594 7.65923 5.71281 7.60422 5.71281C7.56754 5.71281 7.53087 5.33221 7.53087 4.84288C7.53087 3.48362 7.20078 2.61369 6.35722 1.79813C5.25693 0.692593 3.95492 0.402615 2.48786 0.910072ZM4.50506 2.7043C5.51366 3.12114 5.69705 3.71922 5.69705 6.43775V8.79381L6.3939 8.34072C8.026 7.27143 10.9051 6.74585 12.9406 7.16269C16.2048 7.79701 18.9739 10.2437 20.0009 13.3791C21.3395 17.4568 19.4324 22.169 15.618 24.1807C14.0959 24.9781 12.8856 25.2862 11.1985 25.2862C8.55781 25.2862 6.55894 24.4888 4.67011 22.6583C3.40477 21.4259 2.32282 19.4867 2.0294 17.8737C1.75433 16.3876 1.79101 4.09982 2.08442 3.53798C2.28614 3.13927 3.33142 2.45057 3.73486 2.45057C3.80821 2.45057 4.15664 2.55931 4.50506 2.7043ZM26.2909 3.17551C27.9596 4.98787 25.3189 7.36205 23.5585 5.62219C22.7332 4.80663 23.1367 3.10302 24.292 2.61369C24.9155 2.35995 25.7407 2.59556 26.2909 3.17551ZM41.805 7.25331C46.7746 8.41321 49.9471 13.5059 48.7001 18.3087C48.2417 20.0304 47.5082 21.299 46.2245 22.5858C44.354 24.4525 42.3368 25.2681 39.6044 25.2862C34.6347 25.3043 30.4536 21.1903 30.4536 16.2788C30.4536 10.2981 35.9734 5.89404 41.805 7.25331ZM26.2542 8.77568L26.786 9.30127V16.7682V24.2169L26.3459 24.6519C25.5023 25.4856 24.347 25.4674 23.5585 24.6156L23.1183 24.1444V16.7319V9.30127L23.6502 8.77568C24.0719 8.35884 24.347 8.2501 24.9522 8.2501C25.5573 8.2501 25.8324 8.35884 26.2542 8.77568ZM23.0083 26.5549C26.2542 27.6604 28.6748 30.5783 29.1883 34.0218C29.8485 38.4258 26.8227 42.9204 22.4765 44.0441C20.2392 44.6059 17.6352 44.3159 15.563 43.2466L14.5177 42.7029L14.4627 45.2402L14.4077 47.7956L13.8025 48.3212C12.959 49.0824 12.0971 49.0462 11.2719 48.2306L10.6484 47.6144V40.9993C10.6484 37.3746 10.7217 33.9493 10.8317 33.4237C11.4552 30.1252 14.481 27.0261 17.8553 26.2649C19.3223 25.9387 21.5963 26.0655 23.0083 26.5549ZM42.6302 26.5549C44.0239 27.0261 45.1792 27.7691 46.2428 28.8565C48.0583 30.7051 48.8469 32.6262 48.8469 35.1635C48.8285 38.8064 46.9397 41.833 43.7305 43.4097C42.2084 44.1528 40.9431 44.3703 38.9626 44.2797C37.5138 44.2072 37.0737 44.0984 35.9184 43.5547C32.3241 41.8511 30.4536 39.0238 30.4536 35.2723C30.4536 34.4205 30.5637 33.2968 30.7104 32.7894C31.5539 29.6721 34.2313 27.1167 37.5689 26.283C38.9259 25.9387 41.2182 26.0655 42.6302 26.5549ZM53.7982 26.2105C54.0182 26.3193 55.4853 27.6785 57.0624 29.2009C59.593 31.6838 59.9781 31.9919 60.5283 31.9919C61.0784 31.9919 61.4635 31.6657 64.1959 29.0015C67.02 26.2286 67.3134 26.0112 67.9186 26.0112C68.3954 26.0112 68.7622 26.1561 69.1839 26.5367L69.7891 27.0623L69.8441 34.6561C69.8808 38.8245 69.8441 42.4854 69.7891 42.7935C69.459 44.6603 66.8733 44.8777 66.1948 43.1016C66.1031 42.866 66.0298 40.365 66.0298 37.574V32.4813L64.6727 33.768C62.9673 35.3629 62.4171 35.6529 60.8584 35.7616C59.0429 35.8885 58.236 35.526 56.3655 33.7499L54.8435 32.3V37.8458V43.3735L54.275 43.8447C53.4681 44.5153 52.4228 44.4971 51.7076 43.7903L51.1758 43.2647V35.2179C51.1758 27.8779 51.2125 27.1529 51.5059 26.8086C52.1294 26.0474 53.0096 25.8118 53.7982 26.2105ZM84.0562 26.283C88.4574 27.2073 91.6482 31.4663 91.2815 35.8885C90.713 42.5398 83.6344 46.3639 77.6745 43.2466C77.1794 42.9929 76.7026 42.7573 76.6292 42.721C76.5376 42.6848 76.4825 43.7178 76.4825 45.0227C76.4825 47.6144 76.3358 48.1762 75.5473 48.5931C74.7404 48.9918 73.9885 48.9012 73.3284 48.3212L72.7232 47.7956L72.6682 41.6518C72.5948 34.5292 72.7232 33.2062 73.6401 31.3032C75.5106 27.3885 79.6917 25.3587 84.0562 26.283ZM103.843 26.2105C106.997 26.863 109.821 29.4184 110.775 32.4994C111.105 33.5324 111.142 34.1849 111.142 38.462V43.2647L110.61 43.7903C109.858 44.5334 108.758 44.5334 108.006 43.7903C107.474 43.2647 107.474 43.2285 107.474 41.253V39.2413H104.082C101.074 39.2413 100.579 39.2776 99.662 39.6219C98.2867 40.1294 97.1864 41.1443 96.5812 42.5036C96.3062 43.0835 95.8844 43.736 95.6093 43.9534C94.9491 44.4609 93.8855 44.4428 93.2253 43.8809L92.7119 43.446L92.6568 38.8789C92.6018 33.7318 92.6935 32.9887 93.6655 31.0495C95.5176 27.3885 99.7537 25.3768 103.843 26.2105ZM123.428 26.283C124.51 26.8267 124.694 28.1679 123.813 29.1284L123.282 29.7084L120.751 29.7808C119.339 29.8171 118.055 29.944 117.872 30.0346C117.303 30.3246 116.955 31.3757 117.193 32.0825C117.542 33.0975 117.909 33.2243 121.063 33.2968C124.29 33.3693 124.987 33.5687 126.417 34.8736C127.573 35.9247 128.086 37.1752 128.086 38.8789C128.105 41.1443 127.096 42.7573 125.042 43.7722L123.923 44.3159H118.991H114.039L113.507 43.7903C113.086 43.3735 112.976 43.1016 112.976 42.5036C112.976 41.9055 113.086 41.6336 113.507 41.2168L114.039 40.6912H118.477C121.374 40.6912 123.043 40.6187 123.3 40.4918C124.4 39.93 124.694 38.5708 123.905 37.6646L123.465 37.1571L120.458 37.0665C117.872 36.9759 117.358 36.9034 116.643 36.559C115.415 35.9791 114.589 35.2179 113.984 34.1486C113.489 33.2606 113.434 33.0068 113.434 31.5388C113.434 30.0708 113.489 29.8171 113.984 28.929C114.644 27.751 115.671 26.8448 116.9 26.3917C118.129 25.9205 122.585 25.848 123.428 26.283Z" fill="#5C7347"/>
<path d="M9.7681 10.8779C7.25577 11.5666 5.71536 13.5602 5.69702 16.1337C5.69702 18.2904 6.79731 20.0847 8.72283 21.0815C9.49303 21.4802 9.87813 21.5708 11.1068 21.5708C12.3538 21.5708 12.7389 21.4983 13.6375 21.0452C15.618 20.0847 16.8283 17.9823 16.6633 15.7894C16.3882 12.3822 13.014 9.98987 9.7681 10.8779Z" fill="#5C7347"/>
<path d="M38.4674 10.7872C36.7803 11.2041 35.3683 12.3821 34.6348 13.9588C34.0113 15.3181 34.0479 17.2573 34.7264 18.526C35.3316 19.6859 36.2852 20.6102 37.4038 21.1539C38.6692 21.7701 40.8331 21.7338 42.0984 21.0814C44.0973 20.0483 45.1976 18.2904 45.1976 16.1337C45.1976 14.5207 44.7391 13.4695 43.5288 12.2733C42.2451 11.0047 40.1179 10.3885 38.4674 10.7872Z" fill="#5C7347"/>
<path d="M18.7905 29.835C17.5985 30.1068 16.1498 31.0855 15.4896 32.0461C13.014 35.5983 15.3062 40.3466 19.6341 40.6366C22.6782 40.8541 25.2456 38.643 25.4656 35.6164C25.5756 33.949 25.1722 32.8073 24.0169 31.5567C22.6415 30.0706 20.6243 29.4 18.7905 29.835Z" fill="#5C7347"/>
<path d="M38.5774 29.817C36.0284 30.3245 34.2863 32.3543 34.1579 35.0184C34.0845 36.1059 34.1579 36.4683 34.5246 37.2839C35.1298 38.5707 35.9 39.4225 37.0737 40.0387C39.696 41.4523 43.1986 40.3468 44.574 37.6826C44.9591 36.9214 45.0324 36.5408 45.0324 35.1634C45.0324 33.7136 44.9774 33.4417 44.5373 32.7168C43.217 30.5057 40.8697 29.3639 38.5774 29.817Z" fill="#5C7347"/>
<path d="M80.8287 29.817C79.2149 30.2157 77.8396 31.3213 77.0143 32.898C76.6659 33.5686 76.5742 33.9854 76.5742 35.2541C76.5742 36.6315 76.6292 36.9033 77.1244 37.7732C78.9949 41.108 83.5244 41.6698 86.0918 38.8788C88.0173 36.7764 88.0356 33.7136 86.1284 31.5025C85.0831 30.2701 82.4241 29.4364 80.8287 29.817Z" fill="#5C7347"/>
<path d="M99.7904 30.1795C98.4701 30.7775 97.6265 31.575 97.0397 32.753C96.5262 33.7317 96.4712 34.0398 96.4712 35.4534V37.0664L97.0764 36.7039C98.5251 35.8159 99.7537 35.6165 103.751 35.6165H107.529L107.401 34.656C107.144 32.8255 106.154 31.3213 104.577 30.4151C103.421 29.7445 101.001 29.6176 99.7904 30.1795Z" fill="#5C7347"/>
</svg>
